<?xml version="1.0" standalone="no"?>
<!DOCTYPE svg PUBLIC "-//W3C//DTD SVG 20010904//EN"
 "http://www.w3.org/TR/2001/REC-SVG-20010904/DTD/svg10.dtd">
<svg version="1.0" xmlns="http://www.w3.org/2000/svg"
 width="501.000000pt" height="295.000000pt" viewBox="0 0 501.000000 295.000000"
 preserveAspectRatio="xMidYMid meet">

<g transform="translate(0.000000,295.000000) scale(0.100000,-0.100000)"
fill="#000000" stroke="none">
<path d="M1778 2794 c-19 -19 -106 -28 -124 -13 -17 14 -109 -18 -160 -55 -38
-29 -41 -36 -53 -105 -12 -71 -16 -77 -71 -133 l-58 -58 -3 -92 c-2 -51 0 -98
4 -104 4 -7 -1 -18 -10 -25 -9 -8 -22 -29 -30 -47 -13 -32 -12 -35 22 -82 26
-36 35 -58 36 -91 1 -24 9 -52 17 -61 19 -23 5 -83 -21 -83 -9 0 -24 -8 -34
-17 -16 -16 -16 -19 2 -38 15 -16 16 -24 7 -43 -6 -12 -14 -32 -17 -45 -4 -15
-17 -25 -36 -29 -18 -3 -29 -12 -29 -22 0 -9 -14 -29 -31 -46 -16 -16 -29 -38
-28 -50 5 -68 -14 -95 -66 -95 -44 0 -46 -11 -48 -238 -2 -137 1 -183 11 -195
8 -9 11 -21 7 -28 -4 -6 -9 -69 -10 -140 -2 -70 -6 -133 -10 -139 -4 -6 24
-10 84 -10 89 0 91 0 97 26 5 20 11 24 28 20 11 -2 38 1 59 9 50 17 59 -1 10
-22 l-38 -17 95 -7 c140 -9 167 -19 242 -92 36 -34 67 -68 70 -75 3 -10 12 -9
43 4 l40 16 -28 -28 c-28 -27 -32 -54 -11 -61 7 -2 19 4 29 13 9 10 20 13 23
8 4 -5 13 -9 21 -9 8 0 16 -6 19 -12 4 -13 -15 -18 -55 -14 -25 2 -29 -9 -11
-27 17 -17 57 -15 64 3 4 8 12 15 19 15 11 0 10 -6 -1 -30 -9 -18 -23 -30 -35
-30 -12 0 -19 -7 -19 -20 0 -13 7 -20 20 -20 11 0 20 -4 20 -10 0 -5 -5 -10
-11 -10 -7 0 -9 -10 -4 -27 12 -51 36 -91 81 -137 40 -40 48 -44 70 -35 22 8
27 6 31 -11 7 -25 28 -21 28 6 0 10 6 19 13 18 33 -3 34 -4 21 -21 -13 -15
-11 -16 11 -10 14 4 33 7 42 7 9 0 18 10 21 23 3 21 4 21 15 -5 9 -21 17 -27
34 -24 13 3 33 5 46 5 16 1 22 7 23 24 0 12 3 16 6 10 2 -7 13 -13 24 -13 10
0 19 -5 19 -11 0 -7 7 -8 18 -4 9 4 31 11 47 15 22 6 24 8 9 9 -12 1 -27 8
-34 16 -12 14 -9 15 21 12 19 -2 40 -6 46 -10 6 -4 57 -4 113 -1 110 8 122 15
102 60 -14 29 1 33 30 7 17 -15 19 -15 38 2 11 10 20 22 20 26 0 5 14 31 30
57 20 34 30 62 30 90 0 23 5 42 13 45 9 3 9 7 -1 19 -7 8 -11 24 -9 34 4 23
136 158 199 203 29 21 48 43 51 59 4 17 16 31 34 39 15 7 41 22 56 35 26 21
29 22 38 5 7 -11 22 -17 48 -17 33 0 40 4 51 29 l12 29 40 -16 c23 -9 43 -24
46 -35 2 -10 17 -24 33 -33 23 -12 29 -21 29 -49 0 -18 5 -37 10 -40 35 -22
116 44 112 91 -1 19 31 53 86 90 2 1 -4 13 -12 26 -15 23 -14 26 20 66 19 23
37 54 40 68 3 15 15 41 27 58 23 32 26 45 30 111 1 29 7 41 20 43 10 2 22 15
27 28 7 16 17 24 34 24 41 0 87 50 93 101 2 24 9 54 15 66 6 12 8 29 5 37 -6
16 35 56 58 56 24 0 38 31 39 91 2 58 4 62 33 74 28 12 31 18 37 71 5 41 18
77 42 116 19 31 34 59 34 63 0 4 14 25 32 47 27 35 35 39 61 34 23 -5 38 0 63
19 18 14 37 25 41 25 5 0 19 9 32 21 20 19 21 23 7 38 -10 10 -12 21 -6 32 5
8 12 38 15 65 5 44 2 53 -18 72 -21 20 -48 29 -88 31 -12 1 -18 16 -23 58 -12
103 -33 154 -96 235 -72 92 -109 108 -146 64 -15 -17 -37 -28 -61 -31 -21 -3
-49 -14 -63 -25 -14 -12 -37 -28 -52 -38 -15 -9 -32 -27 -38 -41 -10 -22 -14
-23 -78 -16 -38 4 -81 15 -100 27 -54 33 -130 48 -249 48 -197 0 -294 -33
-365 -123 l-32 -40 -90 6 c-109 7 -192 30 -206 57 -6 11 -19 20 -30 20 -11 0
-39 14 -64 31 -65 47 -119 49 -183 10 -27 -17 -63 -31 -78 -31 -16 0 -36 -6
-44 -14 -35 -31 -60 -29 -91 6 -125 140 -158 169 -183 163 -16 -4 -49 4 -97
24 -80 35 -128 39 -152 15z m1093 -1263 c35 -18 74 -41 87 -51 12 -10 54 -28
93 -39 38 -12 67 -26 64 -31 -3 -4 -24 -11 -48 -15 -71 -11 -118 -28 -127 -45
-5 -9 -28 -22 -52 -29 -24 -7 -55 -18 -70 -23 -29 -11 -116 -6 -207 11 -52 10
-161 58 -161 70 0 16 -50 33 -139 46 -55 8 -114 22 -133 30 -32 14 -31 14 52
15 108 1 206 15 223 32 8 8 32 21 53 30 21 9 50 21 64 27 14 6 70 10 131 8 98
-2 110 -5 170 -36z m-551 -1350 c0 -6 -4 -13 -10 -16 -5 -3 -10 1 -10 9 0 9 5
16 10 16 6 0 10 -4 10 -9z"/>
<path d="M212 1738 c-16 -16 -15 -28 3 -28 8 0 15 9 15 20 0 23 -2 24 -18 8z"/>
<path d="M4813 1743 c-17 -6 -16 -28 1 -42 11 -9 15 -8 20 5 8 20 -5 42 -21
37z"/>
<path d="M216 1563 c-8 -8 -8 -48 1 -56 10 -10 33 13 33 33 0 18 -23 34 -34
23z"/>
<path d="M4786 1543 c-9 -27 2 -53 20 -46 18 7 18 24 0 48 -13 18 -14 18 -20
-2z"/>
<path d="M4818 1445 c2 -14 6 -25 8 -25 2 0 4 11 4 25 0 14 -4 25 -9 25 -4 0
-6 -11 -3 -25z"/>
</g>
</svg>
